<svg width="32" height="32" viewBox="0 0 32 32" fill="none" xmlns="http://www.w3.org/2000/svg">
<path d="M11.9999 14.6667C11.9999 15.7275 12.4213 16.7449 13.1715 17.4951C13.9216 18.2452 14.9391 18.6667 15.9999 18.6667C17.0608 18.6667 18.0782 18.2452 18.8283 17.4951C19.5785 16.7449 19.9999 15.7275 19.9999 14.6667C19.9999 13.6058 19.5785 12.5884 18.8283 11.8382C18.0782 11.0881 17.0608 10.6667 15.9999 10.6667C14.9391 10.6667 13.9216 11.0881 13.1715 11.8382C12.4213 12.5884 11.9999 13.6058 11.9999 14.6667Z" stroke="white" stroke-width="2" stroke-linecap="round" stroke-linejoin="round"/>
<path d="M23.5426 22.2093L17.8853 27.8666C17.3852 28.3661 16.7074 28.6467 16.0006 28.6467C15.2938 28.6467 14.6159 28.3661 14.1159 27.8666L8.45726 22.2093C6.96555 20.7175 5.9497 18.8169 5.53817 16.7477C5.12664 14.6786 5.33791 12.534 6.14526 10.5849C6.95261 8.63586 8.31979 6.96998 10.0739 5.79794C11.828 4.6259 13.8903 4.00032 15.9999 4.00032C18.1096 4.00032 20.1718 4.6259 21.9259 5.79794C23.6801 6.96998 25.0472 8.63586 25.8546 10.5849C26.6619 12.534 26.8732 14.6786 26.4617 16.7477C26.0501 18.8169 25.0343 20.7175 23.5426 22.2093Z" stroke="white" stroke-width="2" stroke-linecap="round" stroke-linejoin="round"/>
</svg>
