<svg width="16" height="16" viewBox="0 0 16 16" fill="none" xmlns="http://www.w3.org/2000/svg">
<path d="M1.33334 5.33329C1.33334 4.62605 1.6143 3.94777 2.11439 3.44767C2.61449 2.94758 3.29277 2.66663 4.00001 2.66663H12C12.7073 2.66663 13.3855 2.94758 13.8856 3.44767C14.3857 3.94777 14.6667 4.62605 14.6667 5.33329V10.6666C14.6667 11.3739 14.3857 12.0521 13.8856 12.5522C13.3855 13.0523 12.7073 13.3333 12 13.3333H4.00001C3.29277 13.3333 2.61449 13.0523 2.11439 12.5522C1.6143 12.0521 1.33334 11.3739 1.33334 10.6666V5.33329Z" stroke="white" stroke-width="1.2" stroke-linecap="round" stroke-linejoin="round"/>
<path d="M6.66668 5.99996L10 7.99996L6.66668 9.99996V5.99996Z" stroke="white" stroke-width="1.2" stroke-linecap="round" stroke-linejoin="round"/>
</svg>
