<svg width="21" height="20" viewBox="0 0 21 20" fill="none" xmlns="http://www.w3.org/2000/svg">
<path d="M6.51134 0.531609C7.53698 0.493622 8.86018 0.474628 10.4809 0.474628C12.1017 0.474628 13.4249 0.493622 14.4506 0.531609C15.3243 0.569595 16.103 0.721542 16.7867 0.987448C17.4452 1.24069 18.015 1.6079 18.4961 2.08906C18.9773 2.57023 19.3445 3.14003 19.5978 3.79846C19.8637 4.48223 20.0156 5.26095 20.0536 6.13465C20.0916 7.16029 20.1106 8.48349 20.1106 10.1043C20.1106 11.725 20.0916 13.0482 20.0536 14.0739C20.0156 14.9476 19.8637 15.7263 19.5978 16.4101C19.3445 17.0685 18.9773 17.6383 18.4961 18.1195C18.015 18.6006 17.4452 18.9678 16.7867 19.2211C16.103 19.487 15.3243 19.6389 14.4506 19.6769C13.4249 19.7149 12.1017 19.7339 10.4809 19.7339C8.86018 19.7339 7.53698 19.7149 6.51134 19.6769C5.63764 19.6389 4.85892 19.487 4.17515 19.2211C3.51672 18.9678 2.94692 18.6006 2.46575 18.1195C1.98459 17.6383 1.61738 17.0685 1.36414 16.4101C1.09823 15.7263 0.946285 14.9476 0.908298 14.0739C0.870312 13.0482 0.851318 11.725 0.851318 10.1043C0.851318 8.48349 0.870312 7.16029 0.908298 6.13465C0.946285 5.26095 1.09823 4.48223 1.36414 3.79846C1.61738 3.14003 1.98459 2.57023 2.46575 2.08906C2.94692 1.6079 3.51672 1.24069 4.17515 0.987448C4.85892 0.721542 5.63764 0.569595 6.51134 0.531609ZM14.6025 1.78517C13.5389 1.74718 12.165 1.72819 10.4809 1.72819C8.79687 1.72819 7.42302 1.74718 6.35939 1.78517C5.67563 1.81049 5.04252 1.93078 4.46006 2.14604C3.54837 2.52591 2.9026 3.17168 2.52273 4.08337C2.30748 4.66583 2.18718 5.29894 2.16186 5.9827C2.12387 7.04633 2.10488 8.42018 2.10488 10.1043C2.10488 11.7883 2.12387 13.1622 2.16186 14.2258C2.18718 14.9096 2.30748 15.5427 2.52273 16.1251C2.9026 17.0368 3.54837 17.6826 4.46006 18.0625C5.04252 18.2777 5.67563 18.398 6.35939 18.4233C7.42302 18.4613 8.79687 18.4803 10.4809 18.4803C12.165 18.4803 13.5389 18.4613 14.6025 18.4233C15.2863 18.398 15.9194 18.2777 16.5018 18.0625C17.4135 17.6826 18.0593 17.0368 18.4392 16.1251C18.6544 15.5427 18.7747 14.9096 18.8 14.2258C18.838 13.1622 18.857 11.7883 18.857 10.1043C18.857 8.42018 18.838 7.04633 18.8 5.9827C18.7747 5.29894 18.6544 4.66583 18.4392 4.08337C18.0593 3.17168 17.4135 2.52591 16.5018 2.14604C15.9194 1.93078 15.2863 1.81049 14.6025 1.78517ZM7.7554 12.8298C7.7554 12.8298 7.94375 13.0182 8.32045 13.3949C8.69716 13.7716 9.41732 13.9599 10.4809 13.9599C11.5446 13.9599 12.4531 13.5832 13.2065 12.8298C13.9599 12.0764 14.3366 11.1679 14.3366 10.1043C14.3366 9.04063 13.9599 8.13211 13.2065 7.37871C12.4531 6.62531 11.5446 6.24861 10.4809 6.24861C9.41732 6.24861 8.5088 6.62531 7.7554 7.37871C7.002 8.13211 6.6253 9.04063 6.6253 10.1043C6.6253 11.1679 7.002 12.0764 7.7554 12.8298ZM6.98617 6.60948C6.98617 6.60948 7.22675 6.3689 7.70792 5.88773C8.18908 5.40657 9.11343 5.16599 10.4809 5.16599C11.8485 5.16599 13.0134 5.64715 13.9757 6.60948C14.9381 7.57181 15.4192 8.73674 15.4192 10.1043C15.4192 11.4718 14.9381 12.6367 13.9757 13.599C13.0134 14.5614 11.8485 15.0425 10.4809 15.0425C9.11343 15.0425 7.9485 14.5614 6.98617 13.599C6.02384 12.6367 5.54268 11.4718 5.54268 10.1043C5.54268 8.73674 6.02384 7.57181 6.98617 6.60948ZM16.4354 4.14984C16.4354 4.14984 16.4939 4.2084 16.6111 4.32553C16.7282 4.44266 16.7867 4.6595 16.7867 4.97605C16.7867 5.29261 16.6728 5.56168 16.4449 5.78327C16.2169 6.00486 15.9384 6.11565 15.6092 6.11565C15.2926 6.11565 15.0235 6.00486 14.8019 5.78327C14.5803 5.56168 14.4696 5.29261 14.4696 4.97605C14.4696 4.64683 14.5803 4.36827 14.8019 4.14034C15.0235 3.91243 15.2926 3.79846 15.6092 3.79846C15.9257 3.79846 16.2011 3.91559 16.4354 4.14984Z" fill="#111111"/>
</svg>
